<?xml version="1.0" encoding="UTF-8"?>
<svg id="Capa_1" xmlns="http://www.w3.org/2000/svg" width="800" height="800" version="1.1" viewBox="0 0 800 800">
  <!-- Generator: Adobe Illustrator 29.8.1, SVG Export Plug-In . SVG Version: 2.1.1 Build 2)  -->
  <defs>
    <style>
      .st0 {
        fill: #d8d3d4;
      }
    </style>
  </defs>
  <path class="st0" d="M696.79,135.47c-4.5-6.42-12.12-9.31-19.57-8.2-.28-.07-.57-.19-.85-.23l-305.33-44.82c-3.34-.5-6.74-.14-9.91,1.03l-244.55,89.63c-.11.04-.2.11-.31.15-.26.11-.5.27-.77.36-1.34.59-2.58,1.3-3.73,2.12-.35.26-.69.51-1.04.8-1.26,1.03-2.4,2.15-3.36,3.43-.05.08-.14.12-.19.2L3.9,321.2c-3.96,5.42-4.98,12.47-2.73,18.79,2.26,6.33,7.51,11.12,14.02,12.79l89.61,23.14v221.53c0,8.9,5.82,16.78,14.34,19.38l328.09,100.25c.11.05.23.01.34.07,1.76.49,3.59.8,5.43.81.04,0,.09.03.15.03h.01c1.93,0,3.82-.35,5.71-.91.59-.19,1.15-.45,1.76-.7.8-.3,1.58-.51,2.36-.92l235.43-130.66c6.44-3.58,10.43-10.36,10.43-17.72v-221.49l79.64-38.23c5.36-2.57,9.32-7.39,10.83-13.14,1.5-5.77.41-11.89-3.01-16.76l-99.54-142ZM370.24,123.07l238.32,34.98-158.09,73.51-250.35-46.13,170.11-62.36ZM132.39,214.15l286.86,52.87-84.31,126.48L54.25,321.03l78.14-106.88ZM145.33,582.46v-196.09l193.4,49.94c1.69.42,3.38.65,5.07.65,6.66,0,13.03-3.3,16.86-9.02l72.25-108.37v350.76l-287.57-87.87ZM668.33,555.15l-194.92,108.15v-320.03l35.59,75.63c2.31,4.88,6.47,8.66,11.54,10.44,2.2.81,4.5,1.18,6.78,1.18,3.01,0,6-.68,8.77-1.97l132.22-63.46.03,190.06h0ZM536.98,383.18l-56.83-120.73,193.18-89.82,76.1,108.56-212.46,101.99Z"/>
</svg>