<?xml version="1.0" encoding="UTF-8"?>
<svg id="Layer_1" xmlns="http://www.w3.org/2000/svg" width="16" height="13" version="1.1" viewBox="0 0 16 13">
  <!-- Generator: Adobe Illustrator 29.8.1, SVG Export Plug-In . SVG Version: 2.1.1 Build 2)  -->
  <defs>
    <style>
      .st0 {
        fill: none;
        stroke: #52525c;
        stroke-linecap: round;
        stroke-linejoin: round;
        stroke-width: 1.5px;
      }

      .st1 {
        display: none;
        fill: #d8d3d4;
      }

      .st2 {
        fill: #0260ff;
      }
    </style>
  </defs>
  <path class="st1" d="M11.96,11.64c1.68,0,3.04-1.36,3.04-3.04s-1.36-3.04-3.04-3.04h-.02c.01-.13.02-.25.02-.38,0-2.31-1.87-4.18-4.18-4.18S3.6,2.87,3.6,5.18h0c-1.49.31-2.6,1.63-2.6,3.2,0,1.8,1.46,3.26,3.26,3.26"/>
  <path class="st0" d="M11.96,11.64c1.68,0,3.04-1.36,3.04-3.04s-1.36-3.04-3.04-3.04h-.02c.01-.13.02-.25.02-.38,0-2.31-1.87-4.18-4.18-4.18S3.6,2.87,3.6,5.18h0c-1.49.31-2.6,1.63-2.6,3.2,0,1.8,1.46,3.26,3.26,3.26"/>
  <path class="st2" d="M8.16,11.64v-3.8,3.8ZM8.16,7.84l1.52,1.52s-1.52-1.52-1.52-1.52ZM8.16,7.84l-1.52,1.52s1.52-1.52,1.52-1.52Z"/>
  <path class="st0" d="M8.16,11.64v-3.8M8.16,7.84l1.52,1.52M8.16,7.84l-1.52,1.52"/>
</svg>