<?xml version="1.0" encoding="UTF-8"?>
<svg id="Layer_1" xmlns="http://www.w3.org/2000/svg" width="800" height="800" version="1.1" viewBox="0 0 800 800">
  <!-- Generator: Adobe Illustrator 29.8.1, SVG Export Plug-In . SVG Version: 2.1.1 Build 2)  -->
  <defs>
    <style>
      .st0 {
        fill: #d8d3d4;
        fill-rule: evenodd;
      }
    </style>
  </defs>
  <path class="st0" d="M408.33,94.45c-15.34-2.59-36.26-2.79-73.92-2.79-63.91,0-109.34.05-143.78,4.66-33.74,4.51-53.13,12.98-67.23,27.07-14.11,14.11-22.57,33.43-27.08,66.96-4.61,34.26-4.66,79.41-4.66,142.97v64.65c0,2.83,0,4.66.02,6.01.01.91.04,1.31.04,1.4.7,5.7,6.87,9.02,12.03,6.43.08-.05.43-.25,1.19-.75,1.14-.73,2.66-1.75,5.02-3.32,34.36-22.9,79.11-22.9,113.47,0,26.22,17.47,60.38,17.47,86.59,0,34.36-22.9,79.11-22.9,113.47,0,26.22,17.47,60.38,17.47,86.6,0,34.36-22.9,79.11-22.9,113.47,0,25.6,17.06,58.76,17.46,84.72,1.21-.52-23.86-2.05-38.78-5.55-50.64h-104.53c-37.76,0-68.62,0-92.98-3.28-25.46-3.42-47.54-10.83-65.17-28.46-17.62-17.62-25.03-39.7-28.45-65.17-3.28-24.36-3.28-55.22-3.28-92.98v-74ZM458.33,120.21v46.46c0,39.99.05,67.47,2.83,88.11,2.68,19.92,7.47,29.69,14.26,36.47s16.55,11.58,36.47,14.26c20.64,2.78,48.12,2.83,88.11,2.83h67.52c-9.89-9.58-22.55-21.07-38.99-35.86l-132-118.76c-16.26-14.63-28.34-25.41-38.19-33.5ZM339.27,41.67c46.17-.01,76-.02,103.45,10.51,27.45,10.53,49.52,30.4,83.67,61.14,1.18,1.06,2.37,2.13,3.58,3.22l132,118.76c1.4,1.26,2.79,2.51,4.16,3.75,39.47,35.49,64.99,58.44,78.72,89.25,10.65,23.9,12.86,49.06,13.47,82.15.29,15.75-7.57,30.35-20.44,38.93-43.01,28.66-99.04,28.66-142.05,0-17.56-11.71-40.45-11.71-58.01,0-43.01,28.66-99.04,28.66-142.05,0-17.57-11.71-40.45-11.71-58.01,0-43.01,28.66-99.04,28.66-142.05,0-17.56-11.71-40.45-11.71-58.01,0-.34.23-.68.45-1.02.68-3.51,2.34-6.94,4.63-9.87,6.15-36.34,18.78-80.25-4.69-84.78-45.37-.37-3.28-.36-7.41-.36-11.62,0-.41,0-.81,0-1.22v-66.54c0-61.26,0-109.78,5.11-147.75,5.26-39.08,16.33-70.71,41.28-95.66,24.97-24.96,56.72-36.02,95.95-41.27,38.14-5.1,86.92-5.1,148.54-5.1h1.88c1.64,0,3.26,0,4.85,0ZM195.71,582.71c-17.56-11.71-40.45-11.71-58.01,0l-20.87,13.91c-8.93,5.95-13.77,9.23-17.05,12.04-1.43,1.23-2.07,1.96-2.34,2.32-.21.27-.28.41-.35.59l-.02.04c-.23.58-.43,1.08-.22,3.2.31,3.27,1.29,7.59,3.42,16.55,4.91,20.59,12.3,34.39,23.15,45.24,14.11,14.11,33.44,22.56,66.99,27.07,34.27,4.61,79.44,4.66,143.02,4.66h133.38c63.58,0,108.75-.05,143.02-4.66,33.55-4.51,52.88-12.97,66.99-27.07,15.78-15.77,24.31-37.83,28.38-78.26-36.34,11.4-76.62,6.18-109.36-15.63-17.56-11.71-40.45-11.71-58.01,0-43.01,28.66-99.04,28.66-142.05,0-17.57-11.71-40.45-11.71-58.01,0-43.01,28.66-99.04,28.66-142.05,0ZM109.96,541.1c34.36-22.9,79.11-22.9,113.47,0,26.22,17.47,60.38,17.47,86.59,0,34.36-22.9,79.11-22.9,113.47,0,26.22,17.47,60.38,17.47,86.6,0,34.36-22.9,79.11-22.9,113.47,0,26.22,17.47,60.38,17.47,86.59,0,20.56-13.7,48.24,1.58,47.21,26.53-2.6,62.75-10.89,110.03-45.21,144.33-24.95,24.94-56.59,36.01-95.68,41.27-37.99,5.11-86.52,5.11-147.8,5.11h-137.14c-61.28,0-109.81,0-147.8-5.11-39.09-5.25-70.73-16.32-95.68-41.27-18.9-18.89-29.93-41.74-36.43-69-.23-.95-.46-1.9-.69-2.86-3.36-13.87-7.16-29.58-.39-46.82,3.84-9.77,9.92-16.78,16.67-22.57,5.87-5.04,13.31-9.99,20.92-15.07l21.82-14.54Z"/>
</svg>