<?xml version="1.0" encoding="UTF-8"?>
<svg id="Layer_1" xmlns="http://www.w3.org/2000/svg" width="20" height="20" version="1.1" viewBox="0 0 20 20">
  <!-- Generator: Adobe Illustrator 29.8.1, SVG Export Plug-In . SVG Version: 2.1.1 Build 2)  -->
  <defs>
    <style>
      .st0 {
        fill: none;
        stroke: #2a2627;
        stroke-linecap: round;
        stroke-width: 2px;
      }
    </style>
  </defs>
  <path class="st0" d="M7.08,13.17c.74.55,1.64.87,2.61.87s1.87-.32,2.61-.87"/>
  <path class="st0" d="M18.38,9.87v1.32c0,3.39,0,5.09-1.02,6.14-1.02,1.05-2.66,1.05-5.94,1.05h-3.48c-3.28,0-4.92,0-5.94-1.05-1.02-1.05-1.02-2.75-1.02-6.14v-1.32c0-1.99,0-2.98.45-3.81s1.28-1.34,2.92-2.36l1.74-1.08c1.74-1.08,2.61-1.62,3.58-1.62s1.83.54,3.58,1.62l1.74,1.08c1.65,1.02,2.47,1.54,2.92,2.36"/>
</svg>