<svg width="300" height="64" viewBox="0 0 300 64" fill="none" xmlns="http://www.w3.org/2000/svg">
<path d="M81.024 37.128V44.296C81.024 44.7653 80.8107 45 80.384 45H75.584C75.2 45 75.008 44.7653 75.008 44.296V10.184C75.008 9.672 75.2 9.416 75.584 9.416H75.904C77.568 9.416 78.8267 9.84266 79.68 10.696C80.576 11.5067 81.024 12.872 81.024 14.792V29.64L88.512 21.768C88.896 21.2133 89.344 20.936 89.856 20.936H95.232C95.4453 20.936 95.5733 21.0427 95.616 21.256C95.6587 21.4267 95.6373 21.576 95.552 21.704L88 29.704L96.512 44.296C96.5973 44.4667 96.5973 44.6373 96.512 44.808C96.4267 44.936 96.2773 45 96.064 45H90.816C90.1333 45 89.6853 44.744 89.472 44.232L83.776 34.248L81.024 37.128ZM105.189 24.072C106 22.9627 107.024 22.088 108.261 21.448C109.541 20.808 110.928 20.488 112.421 20.488C115.45 20.488 117.818 21.384 119.525 23.176C121.274 24.968 122.149 27.6347 122.149 31.176V44.296C122.149 44.7653 121.914 45 121.445 45H116.709C116.24 45 116.005 44.7653 116.005 44.296V31.944C116.005 29.8533 115.514 28.36 114.533 27.464C113.552 26.568 112.314 26.12 110.821 26.12C109.328 26.12 108.09 26.5893 107.109 27.528C106.128 28.424 105.637 29.9387 105.637 32.072V44.296C105.637 44.7653 105.381 45 104.869 45H100.197C99.7277 45 99.493 44.7653 99.493 44.296V21.704C99.493 21.192 99.7277 20.936 100.197 20.936H100.517C101.754 20.936 102.778 21.2133 103.589 21.768C104.4 22.28 104.933 23.048 105.189 24.072ZM136.889 45.64C133.134 45.64 130.126 44.488 127.865 42.184C125.646 39.88 124.537 36.808 124.537 32.968C124.537 29.1707 125.646 26.1413 127.865 23.88C130.084 21.576 133.07 20.424 136.825 20.424C140.58 20.424 143.566 21.576 145.785 23.88C148.004 26.1413 149.113 29.1707 149.113 32.968C149.113 36.7653 148.025 39.8373 145.849 42.184C143.673 44.488 140.686 45.64 136.889 45.64ZM136.825 39.816C138.446 39.816 139.854 39.304 141.049 38.28C142.244 37.2133 142.841 35.4853 142.841 33.096C142.841 30.7067 142.244 28.9573 141.049 27.848C139.854 26.7387 138.446 26.184 136.825 26.184C135.161 26.184 133.732 26.7387 132.537 27.848C131.385 28.9147 130.809 30.6427 130.809 33.032C130.809 35.4213 131.385 37.1493 132.537 38.216C133.732 39.2827 135.161 39.816 136.825 39.816ZM160.136 37.576L164.616 21.768C164.787 21.2133 165.128 20.936 165.64 20.936H166.28C168.03 20.936 169.331 21.2987 170.184 22.024C171.08 22.7067 171.806 24.0933 172.36 26.184L175.56 37.64L180.04 21.768C180.211 21.2133 180.574 20.936 181.128 20.936H185.224C185.694 20.936 185.865 21.192 185.736 21.704L178.889 44.296C178.76 44.7653 178.462 45 177.992 45H173.192C172.766 45 172.467 44.7653 172.296 44.296L167.752 28.872L163.272 44.296C163.102 44.7653 162.803 45 162.376 45H157.448C156.979 45 156.68 44.7653 156.552 44.296L149.512 21.704C149.47 21.5333 149.491 21.3627 149.576 21.192C149.704 21.0213 149.854 20.936 150.024 20.936H150.984C152.734 20.936 154.035 21.2987 154.888 22.024C155.784 22.7493 156.488 24.136 157 26.184L160.136 37.576ZM188.728 39.752C189.326 40.4773 190.136 41.16 191.16 41.8C192.227 42.3973 193.614 42.696 195.32 42.696C197.155 42.696 198.52 42.376 199.416 41.736C200.355 41.0533 200.824 40.136 200.824 38.984C200.824 38.0027 200.376 37.2133 199.48 36.616C198.627 36.0187 197.56 35.5067 196.28 35.08C195.043 34.6107 193.784 34.0987 192.504 33.544C191.224 32.9467 190.136 32.2213 189.24 31.368C188.387 30.5147 187.96 29.3627 187.96 27.912C187.96 26.1627 188.686 24.6693 190.136 23.432C191.587 22.152 193.507 21.512 195.896 21.512C198.158 21.512 200.078 21.896 201.656 22.664C202.808 23.2613 203.235 24.0507 202.936 25.032L202.681 25.992C202.638 26.248 202.531 26.376 202.36 26.376C202.232 26.376 202.126 26.3333 202.04 26.248C201.102 25.6933 200.142 25.2667 199.16 24.968C198.179 24.6693 197.091 24.52 195.896 24.52C194.446 24.52 193.294 24.7973 192.44 25.352C191.587 25.9067 191.16 26.6747 191.16 27.656C191.16 28.5947 191.587 29.3627 192.44 29.96C193.336 30.5147 194.424 31.0267 195.704 31.496C196.984 31.9227 198.243 32.4133 199.48 32.968C200.76 33.5227 201.827 34.248 202.681 35.144C203.576 35.9973 204.024 37.1707 204.024 38.664C204.024 40.7547 203.256 42.4613 201.72 43.784C200.227 45.064 198.136 45.704 195.448 45.704C193.742 45.704 192.291 45.4053 191.096 44.808C189.902 44.168 189.006 43.4427 188.408 42.632C187.811 41.7787 187.512 41.0107 187.512 40.328C187.512 39.688 187.726 39.368 188.152 39.368C188.408 39.368 188.6 39.496 188.728 39.752ZM217.054 45.64C213.684 45.64 210.974 44.5733 208.926 42.44C206.921 40.264 205.918 37.3413 205.918 33.672C205.918 31.2827 206.388 29.1707 207.326 27.336C208.308 25.5013 209.63 24.072 211.294 23.048C212.958 22.024 214.878 21.512 217.054 21.512C219.316 21.512 221.214 21.896 222.75 22.664C223.945 23.1333 224.393 23.9013 224.094 24.968L223.838 25.928C223.796 26.184 223.689 26.312 223.518 26.312C223.433 26.312 223.305 26.2693 223.134 26.184C222.196 25.6293 221.278 25.224 220.382 24.968C219.486 24.6693 218.377 24.52 217.054 24.52C214.708 24.52 212.809 25.3307 211.358 26.952C209.908 28.5733 209.182 30.792 209.182 33.608C209.182 36.424 209.908 38.6427 211.358 40.264C212.809 41.8427 214.814 42.632 217.374 42.632C218.953 42.632 220.212 42.3547 221.15 41.8C222.089 41.2453 222.9 40.5627 223.582 39.752C223.668 39.6667 223.753 39.5813 223.838 39.496C223.924 39.368 224.052 39.304 224.222 39.304C224.649 39.304 224.862 39.624 224.862 40.264C224.862 41.1173 224.521 41.9707 223.838 42.824C223.198 43.6347 222.281 44.3173 221.086 44.872C219.934 45.384 218.59 45.64 217.054 45.64ZM237.624 45.576C234.253 45.576 231.523 44.5093 229.432 42.376C227.341 40.2 226.296 37.2773 226.296 33.608C226.296 31.176 226.765 29.064 227.704 27.272C228.685 25.4373 230.008 24.0293 231.672 23.048C233.379 22.024 235.341 21.512 237.56 21.512C241.016 21.512 243.768 22.6213 245.816 24.84C247.907 27.0587 248.952 29.96 248.952 33.544C248.952 37.128 247.907 40.0293 245.816 42.248C243.768 44.4667 241.037 45.576 237.624 45.576ZM237.56 42.568C240.035 42.568 242.019 41.7573 243.512 40.136C245.005 38.5147 245.752 36.3387 245.752 33.608C245.752 30.8773 244.984 28.68 243.448 27.016C241.912 25.352 239.949 24.52 237.56 24.52C235.085 24.52 233.123 25.352 231.672 27.016C230.264 28.68 229.56 30.856 229.56 33.544C229.56 36.2747 230.264 38.472 231.672 40.136C233.123 41.7573 235.085 42.568 237.56 42.568ZM255.055 41.544V54.856C255.055 55.112 254.948 55.24 254.735 55.24H252.175C251.962 55.24 251.855 55.112 251.855 54.856V22.344C251.855 22.088 251.962 21.96 252.175 21.96H252.495C253.22 21.96 253.818 22.2587 254.287 22.856C254.799 23.4107 255.055 24.2213 255.055 25.288V25.672C255.908 24.392 257.039 23.3893 258.447 22.664C259.855 21.896 261.519 21.512 263.439 21.512C266.724 21.512 269.348 22.6427 271.311 24.904C273.316 27.1227 274.319 30.024 274.319 33.608C274.319 35.8267 273.871 37.8533 272.975 39.688C272.122 41.48 270.884 42.9093 269.263 43.976C267.642 45.0427 265.722 45.576 263.503 45.576C261.754 45.576 260.132 45.256 258.639 44.616C257.146 43.976 255.951 42.952 255.055 41.544ZM263.311 42.568C264.634 42.568 265.871 42.248 267.023 41.608C268.175 40.9253 269.114 39.9227 269.839 38.6C270.607 37.2347 270.991 35.5707 270.991 33.608C270.991 30.92 270.287 28.744 268.879 27.08C267.471 25.3733 265.551 24.52 263.119 24.52C261.882 24.52 260.644 24.7973 259.407 25.352C258.17 25.9067 257.124 26.8453 256.271 28.168C255.46 29.448 255.055 31.2613 255.055 33.608C255.055 35.8267 255.482 37.5973 256.335 38.92C257.188 40.2 258.255 41.1387 259.535 41.736C260.815 42.2907 262.074 42.568 263.311 42.568ZM279.958 34.76C280.171 37.5333 281.046 39.5387 282.582 40.776C284.16 42.0133 286.08 42.632 288.342 42.632C290.39 42.632 291.947 42.3333 293.014 41.736C294.08 41.096 294.955 40.4347 295.638 39.752C295.723 39.624 295.83 39.496 295.958 39.368C296.086 39.1973 296.235 39.112 296.406 39.112C296.619 39.112 296.747 39.2187 296.79 39.432C296.875 39.6027 296.918 39.7947 296.918 40.008C296.918 40.904 296.534 41.7787 295.766 42.632C294.998 43.4853 293.952 44.1893 292.63 44.744C291.307 45.2987 289.792 45.576 288.086 45.576C286.294 45.576 284.523 45.192 282.774 44.424C281.024 43.656 279.574 42.3973 278.422 40.648C277.27 38.856 276.694 36.5093 276.694 33.608C276.694 31.2613 277.142 29.192 278.038 27.4C278.934 25.5653 280.171 24.136 281.75 23.112C283.371 22.0453 285.184 21.512 287.19 21.512C289.622 21.512 291.563 22.024 293.014 23.048C294.507 24.072 295.574 25.3947 296.214 27.016C296.896 28.5947 297.238 30.3013 297.238 32.136C297.238 32.52 297.238 32.8827 297.238 33.224C297.238 33.5227 297.216 33.8 297.174 34.056C297.131 34.5253 296.854 34.76 296.342 34.76H279.958ZM279.958 32.008H293.974C294.016 30.7707 293.846 29.576 293.462 28.424C293.078 27.272 292.374 26.3333 291.35 25.608C290.368 24.84 288.96 24.456 287.126 24.456C285.12 24.456 283.478 25.1173 282.198 26.44C280.96 27.7627 280.214 29.6187 279.958 32.008Z" fill="white"/>
<path d="M26 29C26 31.7614 23.7614 34 21 34C18.2386 34 16 31.7614 16 29C16 26.2386 18.2386 24 21 24C23.7614 24 26 26.2386 26 29Z" fill="url(#paint0_linear_10_10)"/>
<path d="M48 29C48 31.7614 45.7614 34 43 34C40.2386 34 38 31.7614 38 29C38 26.2386 40.2386 24 43 24C45.7614 24 48 26.2386 48 29Z" fill="url(#paint1_linear_10_10)"/>
<path fill-rule="evenodd" clip-rule="evenodd" d="M21 8C9.40202 8 0 17.402 0 29C0 40.598 9.40202 50 21 50H33.0143C36.2767 50 39.4777 50.8866 42.2752 52.5651L51.4855 58.0913C52.152 58.4912 53 58.0111 53 57.2338V47.4708C59.5516 43.9162 64 36.9776 64 29C64 17.402 54.598 8 43 8H21ZM6 29C6 37.2843 12.7157 44 21 44H43C51.2843 44 58 37.2843 58 29C58 20.7157 51.2843 14 43 14C38.6539 14 34.7395 15.8484 32 18.8019C29.2605 15.8484 25.3461 14 21 14C12.7157 14 6 20.7157 6 29Z" fill="url(#paint2_linear_10_10)"/>
<defs>
<linearGradient id="paint0_linear_10_10" x1="6.88232" y1="8" x2="57.1177" y2="58.2354" gradientUnits="userSpaceOnUse">
<stop stop-color="#00A63E"/>
<stop offset="1" stop-color="#7CCF00"/>
</linearGradient>
<linearGradient id="paint1_linear_10_10" x1="6.88232" y1="8" x2="57.1177" y2="58.2354" gradientUnits="userSpaceOnUse">
<stop stop-color="#00A63E"/>
<stop offset="1" stop-color="#7CCF00"/>
</linearGradient>
<linearGradient id="paint2_linear_10_10" x1="6.88232" y1="8" x2="57.1177" y2="58.2354" gradientUnits="userSpaceOnUse">
<stop stop-color="#00A63E"/>
<stop offset="1" stop-color="#7CCF00"/>
</linearGradient>
</defs>
</svg>
