<?xml version="1.0" encoding="UTF-8"?>
<svg id="Layer_1" xmlns="http://www.w3.org/2000/svg" width="800" height="800" version="1.1" viewBox="0 0 800 800">
  <!-- Generator: Adobe Illustrator 29.8.1, SVG Export Plug-In . SVG Version: 2.1.1 Build 2)  -->
  <defs>
    <style>
      .st0 {
        fill: #d8d3d4;
      }
    </style>
  </defs>
  <path class="st0" d="M400,0C179.09,0,0,179.09,0,400s179.09,400,400,400,400-179.09,400-400S620.91,0,400,0ZM400,742.86c-189.35,0-342.86-153.5-342.86-342.86S210.65,57.14,400,57.14s342.86,153.5,342.86,342.86-153.5,342.86-342.86,342.86Z"/>
  <path class="st0" d="M466.29,410.51c29.66-21.14,51.66-48.97,61.14-84.4,21.94-81.54-35.37-165.54-128.34-165.54-41.83,0-75.83,14.86-100.91,39.54-12.57,11.95-22.48,26.42-29.09,42.46-8.52,22.09,2.48,46.91,24.57,55.43,22.09,8.52,46.91-2.48,55.43-24.57,2.33-4.55,5.42-8.67,9.14-12.17,9.6-9.43,22.29-14.97,40.86-14.97,34.11,0,53.49,28.34,45.6,57.54-3.83,14.23-13.43,26.4-28.11,36.8-13.2,9.43-26.86,15.09-34.34,17.14-18.73,5.02-31.76,21.98-31.77,41.37v81.2c0,23.67,19.19,42.86,42.86,42.86s42.86-19.19,42.86-42.86v-51.94c9.6-4.69,19.77-10.57,30.06-17.89h.06Z"/>
  <circle class="st0" cx="393.66" cy="607.66" r="57.14"/>
</svg>