<?xml version="1.0" encoding="UTF-8"?>
<svg id="Layer_1" xmlns="http://www.w3.org/2000/svg" version="1.1" viewBox="0 0 18 17">
  <!-- Generator: Adobe Illustrator 29.8.1, SVG Export Plug-In . SVG Version: 2.1.1 Build 2)  -->
  <defs>
    <style>
      .st0 {
        fill: #fe9a00;
      }
    </style>
  </defs>
  <path class="st0" d="M8.52.46C8.67,0,9.33,0,9.48.46l1.66,5.1c.07.21.26.35.48.35h5.36c.48,0,.69.62.29.9l-4.34,3.15c-.18.13-.25.35-.18.56l1.66,5.1c.15.46-.38.84-.77.56l-4.34-3.15c-.18-.13-.41-.13-.59,0l-4.34,3.15c-.39.28-.92-.1-.77-.56l1.66-5.1c.07-.21,0-.43-.18-.56L.73,6.81c-.39-.28-.19-.9.29-.9h5.36c.22,0,.41-.14.48-.35L8.52.46Z"/>
</svg>