<?xml version="1.0" encoding="UTF-8"?>
<svg id="Layer_1" xmlns="http://www.w3.org/2000/svg" width="24" height="24" version="1.1" viewBox="0 0 24 24">
  <!-- Generator: Adobe Illustrator 29.8.1, SVG Export Plug-In . SVG Version: 2.1.1 Build 2)  -->
  <defs>
    <style>
      .st0 {
        fill: #2a2627;
      }
    </style>
  </defs>
  <path class="st0" d="M19.18,20.44h-3.77c-.3,0-.54-.24-.54-.54v-1.8c0-.3.24-.54.54-.54h3.77c.79,0,1.44-.64,1.44-1.44V7.51c0-.79-.64-1.44-1.44-1.44h-3.77c-.3,0-.54-.24-.54-.54v-1.8c0-.3.24-.54.54-.54h3.77c2.38,0,4.31,1.93,4.31,4.31v8.62c0,2.38-1.93,4.31-4.31,4.31ZM17.07,11.42l-7.54-7.54c-.67-.67-1.84-.2-1.84.76v4.31H1.58c-.6,0-1.08.48-1.08,1.08v4.31c0,.6.48,1.08,1.08,1.08h6.11v4.31c0,.97,1.17,1.44,1.84.76l7.54-7.54c.42-.42.42-1.1,0-1.53Z"/>
</svg>