<?xml version="1.0" encoding="UTF-8"?>
<svg id="Layer_1" xmlns="http://www.w3.org/2000/svg" width="57" height="57" version="1.1" viewBox="0 0 57 57">
  <!-- Generator: Adobe Illustrator 29.8.1, SVG Export Plug-In . SVG Version: 2.1.1 Build 2)  -->
  <defs>
    <style>
      .st0 {
        display: none;
        fill: #f6f8ff;
      }

      .st1 {
        fill: #00a63e;
      }

      .st2 {
        fill: #d1d1d1;
      }
    </style>
  </defs>
  <rect class="st0" x=".35" y=".3" width="56.62" height="55.76" rx="10" ry="10"/>
  <path class="st2" d="M37.41,18.01h-18.89c-.67,0-1.11-.44-1.11-1.11s.44-1.11,1.11-1.11h18.89c.67,0,1.11.44,1.11,1.11s-.44,1.11-1.11,1.11Z"/>
  <path class="st2" d="M43.79,43.58l-3.09-3.07c.77-1.1,1.1-2.3,1.1-3.61,0-3.61-2.98-6.57-6.51-6.57s-6.62,2.96-6.62,6.57,2.98,6.57,6.51,6.57c1.32,0,2.65-.44,3.64-1.1l3.09,3.07c.44.44,1.32.44,1.77,0,.55-.55.55-1.42.11-1.86Z"/>
  <path class="st1" d="M26.52,36.58c0-4.85,4.07-8.82,8.93-8.82,1.24,0,2.37.22,3.51.66v-8.38c0-.66-.45-1.1-1.13-1.1h-19.22c-1.24,0-2.26-.99-2.26-2.21s1.02-2.21,2.26-2.21h19.22c.68,0,1.13-.44,1.13-1.1s-.45-1.1-1.13-1.1h-19.22c-2.49,0-4.52,1.99-4.52,4.41v22.06c0,2.43,2.04,4.41,4.52,4.41h11.08c-1.92-1.65-3.17-3.97-3.17-6.62Z"/>
</svg>