<?xml version="1.0" encoding="UTF-8"?>
<svg id="Layer_1" xmlns="http://www.w3.org/2000/svg" width="58" height="57" version="1.1" viewBox="0 0 58 57">
  <!-- Generator: Adobe Illustrator 29.8.1, SVG Export Plug-In . SVG Version: 2.1.1 Build 2)  -->
  <defs>
    <style>
      .st0 {
        display: none;
        fill: #f6f8ff;
      }

      .st1 {
        fill: #00a63e;
      }

      .st2 {
        fill: #6d4c41;
      }

      .st3 {
        fill: #008236;
      }

      .st4 {
        fill: #d1d1d1;
      }
    </style>
  </defs>
  <rect class="st0" x=".69" y=".3" width="56.62" height="55.76" rx="10" ry="10"/>
  <path class="st1" d="M36.35,20.81c1.77-.39,4.08-2.15,4.43-3.02.21-.51-.82-1.3-1.1-1.62-.63-.73-.37-1.09-.13-1.96.28-.99-.38-2.08-1.31-2.5s-2.05-.29-2.98.12c-.94.42-1.74,1.09-2.52,1.75-.57-.36-1.49-1.96-2.96-.92-1.02.72-1.11,2.27-.98,3.52.31,2.87,1.02,4.36,2.35,4.76,1.68.51,3.55.24,5.21-.13h-.01Z"/>
  <path class="st3" d="M39.23,12.56c-.22,3.87-4,6.43-5.78,7.56l1.16,1s.74.02,1.74-.31c1.73-.55,4.25-2.1,4.43-3.02.26-1.33-1.11-1.04-1.42-2.1-.16-.56.78-1.61-.13-3.14h0ZM32.74,13.59s-.67-.69-1.17-1c-.25.47-.42.97-.51,1.5-.16.92,0,2.22.37,3.19.06.15.27.13.3-.03.32-2.09,1.02-3.65,1.02-3.65h0Z"/>
  <path class="st1" d="M28.04,20.47s-8.23.89-11.94,8.04c-3.71,7.15-.56,11.48,2.78,13.06,3.34,1.58,11.76,2.13,17.23.84,5.48-1.3,6.85-3.99,6.59-6.59-.37-3.79-3.9-6.13-3.9-6.13,0,0,.14-4.69-3.5-7.73-3.23-2.7-7.27-1.48-7.27-1.48h.01Z"/>
  <path class="st2" d="M33.24,18.84c2.23.73,2.72,2.74,2.56,3.29-.19.64-2.66-1.86-6.33-1.71-1.28.05-.91-.73-.32-1.19.78-.6,2.1-1.03,4.08-.39h0Z"/>
  <path class="st4" d="M33.24,18.84c2.23.73,2.72,2.74,2.56,3.29-.19.64-2.66-1.86-6.33-1.71-1.28.05-.91-.73-.32-1.19.78-.6,2.1-1.03,4.08-.39h0Z"/>
  <path class="st3" d="M37.15,25.93c.28-.19,1.22.14,1.48,1.98.13.9.17,1.77.17,1.77,0,0-1.11-.99-1.48-1.69-.46-.88-.64-1.74-.18-2.06h.01Z"/>
</svg>