<?xml version="1.0" encoding="UTF-8"?>
<svg id="Layer_1" xmlns="http://www.w3.org/2000/svg" width="57" height="57" version="1.1" viewBox="0 0 57 57">
  <!-- Generator: Adobe Illustrator 29.8.1, SVG Export Plug-In . SVG Version: 2.1.1 Build 2)  -->
  <defs>
    <style>
      .st0 {
        fill: #f7dece;
      }

      .st1 {
        display: none;
        fill: #f6f8ff;
      }

      .st2 {
        fill: #404040;
      }

      .st3 {
        fill: #00a63e;
      }

      .st4 {
        fill: #008236;
      }

      .st5 {
        fill: #e6af78;
        fill-opacity: .56;
      }

      .st6 {
        fill: #242424;
      }

      .st7 {
        fill: #d29b6e;
        fill-opacity: .34;
      }

      .st8 {
        fill: #f2d4b7;
      }
    </style>
  </defs>
  <rect class="st1" x=".02" y=".3" width="56.62" height="56.62" rx="10" ry="10"/>
  <path class="st5" d="M34.25,36.17v-4.66h-12.31v4.66l6.15,5.32,6.15-5.32h.01Z"/>
  <path class="st4" d="M43.76,38.35l-8.46-1.94c-.13-.03-.25-.08-.36-.14l-6.85,3.89-6.59-4.08c-.17.16-.38.27-.62.33l-8.46,1.94c-1.24.28-2.11,1.36-2.11,2.59v5.21c0,.74.61,1.33,1.37,1.33h32.83c.76,0,1.37-.6,1.37-1.33v-5.21c0-1.24-.87-2.31-2.11-2.59h0Z"/>
  <path class="st7" d="M21.94,31.51v4.92c7.75,2.72,12.31-4.09,12.31-4.09v-.83s-12.31,0-12.31,0Z"/>
  <path class="st0" d="M19.2,16.21l.6,12.76c.06,1.19.66,2.3,1.64,3.01l2.83,2.06c.71.52,1.57.8,2.46.8h2.74c.89,0,1.75-.28,2.46-.8l2.83-2.06c.98-.72,1.58-1.82,1.64-3.01l.6-12.76h-17.8Z"/>
  <path class="st8" d="M26.04,18.87c2.74,0,6.84-.67,7.81-2.66h-14.65l.6,12.76c.06,1.19.66,2.3,1.64,3.01l2.83,2.06c.71.52,1.57.8,2.46.8h1.37c-1.37,0-4.1-2.66-4.1-5.99v-7.99c0-.67.68-2,2.05-2h-.01Z"/>
  <path class="st3" d="M15.33,43.17l-4.43-3.87c-.37.46-.59,1.03-.59,1.65v5.21c0,.74.61,1.33,1.37,1.33h4.79v-1.84c0-.94-.41-1.84-1.13-2.48h0Z"/>
  <path class="st3" d="M40.85,43.17l4.43-3.87c.37.46.59,1.03.59,1.65v5.21c0,.74-.61,1.33-1.37,1.33h-4.79v-1.84c0-.94.41-1.84,1.13-2.48h0Z"/>
  <path class="st3" d="M21.84,34.69l6.25,5.48s-1.75.86-3.91,2.59c-.45.36-1.12.21-1.36-.3l-2.94-6.29.93-1.36c.23-.34.72-.4,1.03-.13h0Z"/>
  <path class="st3" d="M34.34,34.69l-6.25,5.48s1.75.86,3.91,2.59c.45.36,1.12.21,1.36-.3l2.94-6.29-.93-1.36c-.23-.34-.72-.4-1.03-.13h0Z"/>
  <path class="st2" d="M32.23,11.8l.64,4.41c2.93.57,3.35,5.04,3.41,6.32,0,.23.09.46.22.65l1.12,1.69s-.38-2.79,1.37-4.66c0,0,.6-11.07-6.75-8.4h0Z"/>
  <path class="st6" d="M19.86,10.61l1.01.67c-4.57,3.29-3.72,8.92-3.72,8.92,1.37,1.33,1.37,4.66,1.37,4.66l1.37-1.33s-.53-3.85,2.05-5.32c2.39-1.37,4.49-.67,6.62-.67,5.73,0,7.33-2.1,7.05-4.66-.14-1.32-2.22-4.08-7.52-3.99-2.14.04-6.15.67-8.23,1.72Z"/>
</svg>