<svg width="100" height="100" viewBox="0 0 100 100" fill="none" xmlns="http://www.w3.org/2000/svg">
<path d="M40.625 43.0246C40.625 47.3672 37.1272 50.8875 32.8125 50.8875C28.4978 50.8875 25 47.3672 25 43.0246C25 38.6819 28.4978 35.1616 32.8125 35.1616C37.1272 35.1616 40.625 38.6819 40.625 43.0246Z" fill="url(#paint0_linear_8_4)"/>
<path d="M75 43.0246C75 47.3672 71.5022 50.8875 67.1875 50.8875C62.8728 50.8875 59.375 47.3672 59.375 43.0246C59.375 38.6819 62.8728 35.1616 67.1875 35.1616C71.5022 35.1616 75 38.6819 75 43.0246Z" fill="url(#paint1_linear_8_4)"/>
<path fill-rule="evenodd" clip-rule="evenodd" d="M32.8125 10C14.6907 10 0 24.7856 0 43.0246C0 61.2635 14.6907 76.0491 32.8125 76.0491H51.5848C56.6823 76.0491 61.684 77.4434 66.055 80.083L80.4461 88.7735C81.4875 89.4024 82.8125 88.6473 82.8125 87.425V72.0716C93.0494 66.4818 100 55.5701 100 43.0246C100 24.7856 85.3093 10 67.1875 10H32.8125ZM9.375 43.0246C9.375 56.0524 19.8683 66.6135 32.8125 66.6135H67.1875C80.1317 66.6135 90.625 56.0524 90.625 43.0246C90.625 29.9967 80.1317 19.4356 67.1875 19.4356C60.3967 19.4356 54.2805 22.3423 50 26.987C45.7195 22.3423 39.6033 19.4356 32.8125 19.4356C19.8683 19.4356 9.375 29.9967 9.375 43.0246Z" fill="url(#paint2_linear_8_4)"/>
<defs>
<linearGradient id="paint0_linear_8_4" x1="10.7536" y1="10" x2="89.752" y2="88.4911" gradientUnits="userSpaceOnUse">
<stop stop-color="#00A63E"/>
<stop offset="1" stop-color="#7CCF00"/>
</linearGradient>
<linearGradient id="paint1_linear_8_4" x1="10.7536" y1="10" x2="89.752" y2="88.4911" gradientUnits="userSpaceOnUse">
<stop stop-color="#00A63E"/>
<stop offset="1" stop-color="#7CCF00"/>
</linearGradient>
<linearGradient id="paint2_linear_8_4" x1="10.7536" y1="10" x2="89.752" y2="88.4911" gradientUnits="userSpaceOnUse">
<stop stop-color="#00A63E"/>
<stop offset="1" stop-color="#7CCF00"/>
</linearGradient>
</defs>
</svg>
